<svg width="512" height="512" viewBox="0 0 512 512" fill="none" xmlns="http://www.w3.org/2000/svg">
<style>
        circle{
            fill:#3F4852;
        }
        path{
            fill:#ffffff;
        }
        @media (prefers-color-scheme:dark){
            circle{
                fill:#ffffff;
            }
            path{
                fill:#3F4852;
            } 
        }
    </style>
<circle cx="256" cy="256" r="256"/>
<path d="M171.354 367.031L105.801 213.4C101.566 203.582 98.5819 195.688 96.8493 189.72C95.1166 183.56 93.9615 178.362 93.3839 174.126C90.6886 174.319 87.9934 174.415 85.2981 174.415C82.6028 174.415 79.9075 174.511 77.2123 174.704V161.997H144.209L143.92 171.816C134.294 172.394 128.519 175.378 126.594 180.768C124.668 185.966 125.631 193.378 129.481 203.004C134.102 214.363 138.53 225.336 142.765 235.925C147.001 246.514 151.717 257.969 156.915 270.29C161.536 281.071 165.964 291.467 170.199 301.478C174.627 311.297 177.996 319.479 180.307 326.024H180.884C183.002 319.286 185.12 312.837 187.237 306.676C189.548 300.515 192.243 293.2 195.323 284.729C201.099 268.557 205.912 254.888 209.762 243.722C213.805 232.556 217.27 223.026 220.158 215.133C223.046 207.24 225.452 200.501 227.378 194.918C229.11 189.913 230.65 185.677 231.998 182.212C233.346 178.747 234.597 175.859 235.752 173.549C232.094 173.741 228.437 173.934 224.779 174.126C221.121 174.319 217.367 174.511 213.516 174.704V161.997H272.138V171.527C263.668 171.912 257.122 174.126 252.501 178.169C248.074 182.212 244.031 189.432 240.373 199.828C239.988 200.79 239.506 202.138 238.929 203.871C238.351 205.411 237.389 208.01 236.041 211.668C234.693 215.325 232.768 220.716 230.265 227.839C227.763 234.77 224.297 244.203 219.869 256.14C215.634 268.076 210.147 283.092 203.409 301.189C196.863 319.286 188.874 341.233 179.44 367.031H171.354ZM396.406 223.219C395.829 213.978 393.615 205.218 389.764 196.94C385.914 188.661 380.331 181.923 373.015 176.725C365.699 171.527 356.362 168.928 345.003 168.928C333.067 168.928 323.923 172.297 317.569 179.035C311.216 185.774 308.04 193.667 308.04 202.715C308.04 210.801 310.35 217.636 314.97 223.219C319.591 228.609 325.559 233.422 332.875 237.658C340.383 241.701 348.276 245.647 356.555 249.498C363.87 252.771 371.186 256.332 378.502 260.183C385.818 263.84 392.46 268.076 398.428 272.889C404.396 277.702 409.113 283.477 412.578 290.216C416.236 296.761 418.065 304.655 418.065 313.896C418.065 329.875 412.193 343.062 400.449 353.458C388.705 363.662 372.052 368.764 350.49 368.764C341.827 368.764 332.875 367.512 323.634 365.01C314.393 362.507 306.211 358.849 299.087 354.036L300.531 366.453H285.515L283.782 304.943H295.045C296.007 321.885 301.879 334.784 312.66 343.64C323.441 352.303 336.436 356.635 351.645 356.635C359.154 356.635 366.084 355.287 372.438 352.592C378.791 349.704 383.796 345.565 387.454 340.174C391.304 334.784 393.23 328.238 393.23 320.537C393.23 311.874 390.919 304.655 386.299 298.879C381.678 293.103 375.71 288.098 368.395 283.862C361.079 279.627 353.282 275.584 345.003 271.734C337.688 268.461 330.468 264.996 323.345 261.338C316.222 257.68 309.676 253.541 303.708 248.92C297.932 244.107 293.216 238.428 289.558 231.882C286.092 225.336 284.36 217.443 284.36 208.202C284.36 203.197 285.226 197.806 286.959 192.031C288.691 186.255 291.675 180.768 295.911 175.57C300.339 170.18 306.307 165.848 313.815 162.575C321.516 159.11 331.238 157.377 342.982 157.377C350.298 157.377 358.48 158.436 367.528 160.554C376.769 162.479 385.336 166.329 393.23 172.105L392.075 159.687H406.802V223.219H396.406Z"/>
</svg>
