<svg width="300" height="300" viewBox="0 0 300 300" fill="none" xmlns="http://www.w3.org/2000/svg">
<circle cx="150" cy="150" r="150" fill="#426D78"/>
<path d="M58.0582 168.691V175.091H28.0364V170.029L44.2109 154.669C46.0339 152.924 47.2558 151.411 47.8764 150.131C48.5358 148.812 48.8655 147.513 48.8655 146.233C48.8655 144.332 48.2255 142.878 46.9455 141.869C45.6655 140.861 43.7842 140.356 41.3018 140.356C37.1515 140.356 33.9709 141.772 31.76 144.604L26.4655 140.531C28.0558 138.398 30.1891 136.749 32.8655 135.585C35.5806 134.383 38.6061 133.782 41.9418 133.782C46.3636 133.782 49.8933 134.829 52.5309 136.924C55.1685 139.018 56.4873 141.869 56.4873 145.476C56.4873 147.687 56.0218 149.762 55.0909 151.702C54.16 153.641 52.3758 155.852 49.7382 158.335L38.8582 168.691H58.0582ZM97.8768 165.84H90.6623V175.091H83.3314V165.84H60.9895V160.604L81.0623 134.364H89.1495L70.2405 159.44H83.5641V151.236H90.6623V159.44H97.8768V165.84ZM140.158 134.364V175.091H132.595V157.636H111.533V175.091H103.969V134.364H111.533V151.178H132.595V134.364H140.158ZM164.337 175.498C161.195 175.498 158.363 174.819 155.842 173.462C153.321 172.104 151.343 170.223 149.908 167.818C148.511 165.375 147.813 162.621 147.813 159.556C147.813 156.492 148.511 153.758 149.908 151.353C151.343 148.948 153.321 147.067 155.842 145.709C158.363 144.351 161.195 143.673 164.337 143.673C167.517 143.673 170.368 144.351 172.89 145.709C175.411 147.067 177.37 148.948 178.766 151.353C180.201 153.758 180.919 156.492 180.919 159.556C180.919 162.621 180.201 165.375 178.766 167.818C177.37 170.223 175.411 172.104 172.89 173.462C170.368 174.819 167.517 175.498 164.337 175.498ZM164.337 169.273C167.013 169.273 169.224 168.381 170.97 166.596C172.715 164.812 173.588 162.465 173.588 159.556C173.588 156.647 172.715 154.301 170.97 152.516C169.224 150.732 167.013 149.84 164.337 149.84C161.66 149.84 159.45 150.732 157.704 152.516C155.997 154.301 155.144 156.647 155.144 159.556C155.144 162.465 155.997 164.812 157.704 166.596C159.45 168.381 161.66 169.273 164.337 169.273ZM197.473 175.498C194.952 175.498 192.489 175.168 190.084 174.509C187.679 173.85 185.759 173.016 184.324 172.007L187.117 166.48C188.513 167.411 190.181 168.167 192.12 168.749C194.099 169.292 196.038 169.564 197.939 169.564C202.283 169.564 204.455 168.419 204.455 166.131C204.455 165.045 203.893 164.288 202.768 163.862C201.682 163.435 199.917 163.028 197.473 162.64C194.913 162.252 192.819 161.806 191.19 161.302C189.599 160.798 188.203 159.925 187 158.684C185.837 157.404 185.255 155.639 185.255 153.389C185.255 150.441 186.477 148.095 188.92 146.349C191.403 144.565 194.739 143.673 198.928 143.673C201.061 143.673 203.194 143.925 205.328 144.429C207.461 144.895 209.207 145.535 210.564 146.349L207.771 151.876C205.134 150.325 202.167 149.549 198.87 149.549C196.736 149.549 195.107 149.879 193.982 150.538C192.896 151.159 192.353 151.993 192.353 153.04C192.353 154.204 192.935 155.038 194.099 155.542C195.301 156.007 197.143 156.453 199.626 156.88C202.108 157.268 204.145 157.714 205.735 158.218C207.325 158.722 208.683 159.576 209.808 160.778C210.971 161.981 211.553 163.687 211.553 165.898C211.553 168.807 210.293 171.135 207.771 172.88C205.25 174.625 201.817 175.498 197.473 175.498ZM236.493 173.404C235.639 174.102 234.592 174.625 233.351 174.975C232.148 175.324 230.868 175.498 229.511 175.498C226.098 175.498 223.46 174.606 221.598 172.822C219.736 171.038 218.805 168.439 218.805 165.025V150.073H213.685V144.255H218.805V137.156H226.078V144.255H234.398V150.073H226.078V164.851C226.078 166.364 226.447 167.527 227.184 168.342C227.921 169.118 228.987 169.505 230.384 169.505C232.013 169.505 233.37 169.079 234.456 168.225L236.493 173.404Z" fill="white"/>
<rect x="269.583" y="90" width="14.5455" height="43.6364" rx="7.27273" transform="rotate(45 269.583 90)" fill="#73B1C1"/>
<rect x="270.482" y="120.103" width="14.5455" height="43.6364" rx="7.27273" transform="rotate(45 270.482 120.103)" fill="#F1D18A"/>
</svg>
