<svg width="300" height="300" viewBox="0 0 300 300" fill="none" xmlns="http://www.w3.org/2000/svg">
<circle cx="150" cy="150" r="150" fill="#14213D"/>
<path d="M98.5164 158.76C98.8655 158.76 99.04 159.109 99.04 159.807C99.04 161.165 98.6133 162.619 97.76 164.171C96.9067 165.684 95.8206 166.964 94.5018 168.011C93.2218 169.058 91.9418 169.582 90.6618 169.582C89.6533 169.582 88.9164 169.252 88.4509 168.593C88.0242 167.895 87.8109 166.867 87.8109 165.509C87.8109 164.423 87.9273 163.162 88.16 161.727C88.3927 160.292 88.7612 158.236 89.2655 155.56C89.9636 151.953 90.3709 149.548 90.4873 148.345V148.055C90.4873 147.318 90.2545 146.949 89.7891 146.949C89.1685 146.949 88.2764 147.647 87.1127 149.044C85.9879 150.401 84.9018 152.108 83.8546 154.164C82.8461 156.219 82.1479 158.198 81.76 160.098L80.7709 164.811C80.577 165.975 79.84 167.061 78.56 168.069C77.28 169.078 76.0194 169.582 74.7782 169.582C74.1576 169.582 73.8473 169.388 73.8473 169C73.8473 168.884 73.8861 168.69 73.9636 168.418C74.08 168.108 74.1576 167.856 74.1964 167.662C74.623 166.421 74.8945 165.47 75.0109 164.811C75.2436 163.686 75.6897 160.971 76.3491 156.665C77.0473 152.36 77.5321 149.354 77.8036 147.647L78.6182 142.353C79.2776 138.59 80.0533 135.293 80.9455 132.462C79.8594 132.966 78.5018 133.335 76.8727 133.567C75.2824 133.761 73.3042 133.858 70.9382 133.858H68.6691L63.84 161.378C63.5685 162.542 63.103 163.395 62.4436 163.938V163.996C63.103 164.345 63.8788 164.52 64.7709 164.52C65.3139 164.52 65.857 164.423 66.4 164.229C66.9818 163.996 67.3503 163.88 67.5055 163.88C67.6994 163.88 67.8158 163.919 67.8545 163.996C67.9321 164.074 67.9709 164.21 67.9709 164.404C67.9709 164.753 67.8739 165.082 67.68 165.393C67.4861 165.703 67.3697 165.897 67.3309 165.975C66.4 167.099 65.5661 167.895 64.8291 168.36C64.0921 168.787 63.3745 169 62.6764 169C62.3273 169 61.9006 168.942 61.3964 168.825C60.9309 168.709 60.6012 168.632 60.4073 168.593C59.2824 168.244 58.3127 168.069 57.4982 168.069C56.6448 168.069 55.8691 168.224 55.1709 168.535C54.4727 168.845 54.0461 169 53.8909 169C53.5806 169 53.4255 168.767 53.4255 168.302C53.4255 167.41 54.0655 166.401 55.3455 165.276C56.16 164.462 56.7224 163.686 57.0327 162.949C57.343 162.212 57.6921 160.816 58.08 158.76L62.4436 133.858H58.9527C56.1988 133.858 54.2982 134.149 53.2509 134.731C52.2424 135.313 51.7382 136.379 51.7382 137.931C51.7382 138.901 51.8933 139.735 52.2036 140.433C52.5139 141.131 52.6691 141.558 52.6691 141.713C52.6691 142.178 52.3782 142.838 51.7964 143.691C51.2533 144.544 50.6327 145.301 49.9345 145.96C49.2364 146.619 48.6739 146.949 48.2473 146.949C48.0921 146.949 47.9564 146.891 47.84 146.775C47.7624 146.619 47.7042 146.522 47.6655 146.484C47.0448 145.165 46.7345 143.575 46.7345 141.713C46.7345 139.269 47.3552 137.058 48.5964 135.08C49.8376 133.063 51.583 131.492 53.8327 130.367C56.0824 129.204 58.6424 128.622 61.5127 128.622H75.0691C77.0861 128.622 78.5988 128.583 79.6073 128.505C80.6545 128.389 81.4109 128.234 81.8764 128.04C82.3418 127.807 82.7685 127.458 83.1564 126.993H83.2145C84.0291 125.402 84.9794 124.045 86.0655 122.92C87.0352 121.834 87.9855 121.019 88.9164 120.476C89.8861 119.895 90.7976 119.487 91.6509 119.255C92.5042 119.022 93.6291 118.789 95.0255 118.556C96.2279 118.362 97.023 118.227 97.4109 118.149C97.7988 118.033 98.0509 117.975 98.1673 117.975C98.5164 117.975 98.6909 118.188 98.6909 118.615C98.6909 118.964 98.5358 119.41 98.2255 119.953C97.9539 120.457 97.6049 120.884 97.1782 121.233C96.7903 121.582 96.383 121.815 95.9564 121.931C95.5297 122.008 95.0061 122.067 94.3855 122.105C93.183 122.183 92.1164 122.513 91.1855 123.095C90.2933 123.638 89.4594 124.51 88.6836 125.713C87.5976 127.381 86.7249 129.553 86.0655 132.229C85.4061 134.905 84.7079 138.92 83.9709 144.273L83.1564 149.858H83.2727C87.3455 144.156 90.8558 141.305 93.8036 141.305C95.743 141.305 96.7127 142.721 96.7127 145.553C96.7127 146.872 96.5576 148.307 96.2473 149.858C95.8206 152.108 95.1612 155.502 94.2691 160.04C93.9588 161.592 93.8036 162.561 93.8036 162.949C93.8036 163.337 93.8424 163.628 93.92 163.822C94.0364 164.016 94.2303 164.113 94.5018 164.113C95.0449 164.113 95.5491 163.744 96.0146 163.007C96.5188 162.27 97.12 161.126 97.8182 159.575C97.8958 159.342 97.9927 159.148 98.1091 158.993C98.2255 158.838 98.3612 158.76 98.5164 158.76ZM108.322 169.582C106.305 169.582 104.715 168.903 103.551 167.545C102.427 166.149 101.864 164.21 101.864 161.727C101.864 158.818 102.601 155.773 104.075 152.593C105.588 149.373 107.488 146.697 109.777 144.564C112.104 142.392 114.431 141.305 116.759 141.305C118.039 141.305 119.047 141.674 119.784 142.411C120.56 143.148 120.948 144.215 120.948 145.611C120.948 147.356 120.385 149.16 119.26 151.022C118.136 152.845 116.584 154.552 114.606 156.142C112.667 157.693 110.475 158.954 108.031 159.924C108.148 162.6 109.331 163.938 111.58 163.938C112.822 163.938 113.985 163.55 115.071 162.775C116.196 161.999 117.185 160.952 118.039 159.633C118.233 159.284 118.407 159.032 118.562 158.876C118.717 158.682 118.873 158.585 119.028 158.585C119.26 158.585 119.416 158.663 119.493 158.818C119.571 158.973 119.61 159.245 119.61 159.633C119.61 160.874 119.047 162.29 117.922 163.88C116.836 165.47 115.42 166.828 113.675 167.953C111.93 169.039 110.145 169.582 108.322 169.582ZM109.486 155.153C110.339 155.153 111.212 154.862 112.104 154.28C112.996 153.659 113.733 152.864 114.315 151.895C114.897 150.925 115.188 149.878 115.188 148.753C115.188 147.356 114.625 146.658 113.5 146.658C112.298 146.658 111.212 147.415 110.242 148.927C109.273 150.44 108.652 152.457 108.38 154.978C108.613 155.095 108.982 155.153 109.486 155.153ZM140.705 169C140.317 169 140.123 168.728 140.123 168.185C140.123 167.448 140.337 166.789 140.763 166.207C141.19 165.625 141.772 165.044 142.509 164.462C143.284 163.841 143.808 163.318 144.08 162.891C144.39 162.464 144.623 161.805 144.778 160.913L147.978 139.618C148.094 138.881 148.482 138.144 149.141 137.407C149.84 136.632 150.654 136.011 151.585 135.545C152.516 135.041 153.447 134.789 154.378 134.789C154.998 134.789 155.309 134.983 155.309 135.371C155.309 135.604 155.134 136.088 154.785 136.825C154.436 137.524 154.145 138.61 153.912 140.084L153.04 146.135H157.869C159.575 145.747 160.933 144.816 161.941 143.342C162.989 141.829 163.512 140.084 163.512 138.105C163.512 136.127 162.911 134.692 161.709 133.8C160.506 132.869 158.625 132.404 156.065 132.404C152.884 132.404 150.286 132.947 148.269 134.033C146.29 135.119 144.526 136.476 142.974 138.105C142.47 138.648 142.082 139.017 141.81 139.211C141.578 139.405 141.326 139.502 141.054 139.502C140.627 139.502 140.414 139.25 140.414 138.745C140.414 138.59 140.511 138.183 140.705 137.524C141.403 135.856 142.567 134.304 144.196 132.869C145.825 131.395 147.861 130.232 150.305 129.378C152.787 128.486 155.503 128.04 158.45 128.04C162.252 128.04 165.18 128.796 167.236 130.309C169.33 131.783 170.378 133.955 170.378 136.825C170.378 141.053 168.186 144.467 163.803 147.065C165.704 148.307 167.158 149.722 168.167 151.313C169.214 152.903 169.738 154.629 169.738 156.491C169.738 158.857 168.981 161.01 167.469 162.949C165.956 164.85 163.997 166.343 161.592 167.429C159.226 168.476 156.783 169 154.261 169C153.33 169 151.507 168.825 148.792 168.476C146.853 168.244 145.631 168.127 145.127 168.127C144.39 168.127 143.343 168.321 141.985 168.709C141.403 168.903 140.977 169 140.705 169ZM155.018 163.938C157.617 163.938 159.595 163.434 160.952 162.425C162.31 161.378 162.989 159.846 162.989 157.829C162.989 154.687 161.437 152.263 158.334 150.556H152.283L150.829 160.622C150.751 161.281 150.635 161.805 150.48 162.193C150.363 162.542 150.169 162.91 149.898 163.298L149.956 163.356C150.499 163.512 151.255 163.647 152.225 163.764C153.233 163.88 154.164 163.938 155.018 163.938ZM176.67 169.582C175.468 169.582 174.517 168.981 173.819 167.778C173.16 166.576 172.83 164.966 172.83 162.949C172.83 159.73 173.606 156.433 175.157 153.058C176.748 149.684 178.9 146.891 181.615 144.68C184.331 142.43 187.259 141.305 190.401 141.305C191.409 141.305 192.398 141.422 193.368 141.655C194.377 141.887 195.191 142.178 195.812 142.527C195.463 143.381 195.23 144.079 195.114 144.622C194.997 145.165 194.92 145.514 194.881 145.669C194.609 147.065 194.202 149.199 193.659 152.069C193.155 154.901 192.67 157.616 192.205 160.215C191.972 161.378 191.855 162.27 191.855 162.891C191.855 163.318 191.914 163.628 192.03 163.822C192.185 164.016 192.398 164.113 192.67 164.113C193.329 164.113 193.931 163.725 194.474 162.949C195.017 162.135 195.598 161.01 196.219 159.575C196.297 159.342 196.394 159.148 196.51 158.993C196.626 158.838 196.782 158.76 196.975 158.76C197.325 158.76 197.499 159.032 197.499 159.575C197.499 159.846 197.48 160.059 197.441 160.215C197.247 161.688 196.743 163.162 195.928 164.636C195.114 166.072 194.105 167.255 192.903 168.185C191.739 169.116 190.537 169.582 189.295 169.582C188.287 169.582 187.492 169.213 186.91 168.476C186.367 167.739 186.095 166.75 186.095 165.509C186.095 165.199 186.134 164.733 186.212 164.113L186.503 162.135H186.386C184.951 164.307 183.303 166.091 181.441 167.487C179.618 168.884 178.028 169.582 176.67 169.582ZM179.986 163.822C180.84 163.822 181.926 163.065 183.245 161.553C184.602 160.04 185.863 158.139 187.026 155.851C188.19 153.524 188.966 151.216 189.354 148.927L189.761 146.658C188.791 146.076 187.899 145.785 187.085 145.785C185.843 145.785 184.583 146.561 183.303 148.113C182.062 149.625 181.034 151.604 180.219 154.047C179.443 156.452 179.055 158.915 179.055 161.436C179.055 162.367 179.114 163.007 179.23 163.356C179.385 163.667 179.637 163.822 179.986 163.822ZM202.563 169.582C201.942 169.582 201.632 169.368 201.632 168.942C201.632 168.787 201.729 168.379 201.923 167.72C202.117 167.216 202.388 166.246 202.737 164.811C203.009 163.686 203.397 161.65 203.901 158.702C204.405 155.754 204.871 152.884 205.297 150.091C205.491 148.85 205.588 148.055 205.588 147.705C205.588 147.124 205.414 146.833 205.065 146.833C204.715 146.833 204.269 147.143 203.726 147.764C203.183 148.345 202.602 149.218 201.981 150.382C201.826 150.692 201.651 150.983 201.457 151.255C201.263 151.487 201.069 151.604 200.875 151.604C200.488 151.604 200.294 151.274 200.294 150.615C200.294 149.567 200.74 148.307 201.632 146.833C202.563 145.32 203.688 144.021 205.006 142.935C206.364 141.848 207.663 141.305 208.905 141.305C209.68 141.305 210.301 141.577 210.766 142.12C211.232 142.663 211.465 143.516 211.465 144.68C211.465 146.193 211.309 147.919 210.999 149.858H211.057C215.208 144.156 218.698 141.305 221.53 141.305C223.508 141.305 224.497 142.682 224.497 145.436C224.497 146.639 224.323 148.113 223.974 149.858C223.043 154.396 222.403 157.616 222.054 159.516C221.705 161.378 221.53 162.503 221.53 162.891C221.53 163.705 221.763 164.113 222.228 164.113C223.314 164.113 224.42 162.6 225.545 159.575C225.777 159.032 226.029 158.76 226.301 158.76C226.766 158.76 226.96 159.245 226.883 160.215C226.728 161.572 226.223 162.988 225.37 164.462C224.517 165.936 223.45 167.158 222.17 168.127C220.929 169.097 219.668 169.582 218.388 169.582C216.488 169.582 215.537 168.302 215.537 165.742C215.537 164.733 215.654 163.512 215.886 162.076C216.119 160.641 216.468 158.799 216.934 156.549C217.244 155.036 217.515 153.524 217.748 152.011C218.02 150.498 218.175 149.276 218.214 148.345V147.88C218.214 147.259 218.02 146.949 217.632 146.949C216.972 146.949 216.061 147.647 214.897 149.044C213.734 150.401 212.628 152.108 211.581 154.164C210.572 156.219 209.874 158.198 209.486 160.098L208.555 164.811C208.323 165.975 207.566 167.061 206.286 168.069C205.045 169.078 203.804 169.582 202.563 169.582ZM233.602 169.582C232.399 169.582 231.449 168.981 230.751 167.778C230.092 166.576 229.762 164.966 229.762 162.949C229.762 159.807 230.538 156.549 232.089 153.175C233.641 149.761 235.716 146.93 238.315 144.68C240.913 142.43 243.706 141.305 246.693 141.305H246.867C248.108 136.069 249.233 132.132 250.242 129.495C251.289 126.818 252.666 124.588 254.373 122.804C255.847 121.291 257.243 120.282 258.562 119.778C259.919 119.235 261.452 118.828 263.158 118.556C264.399 118.362 265.214 118.227 265.602 118.149C265.99 118.033 266.222 117.975 266.3 117.975C266.61 117.975 266.765 118.188 266.765 118.615C266.765 118.964 266.63 119.39 266.358 119.895C266.087 120.36 265.757 120.806 265.369 121.233C264.942 121.582 264.516 121.815 264.089 121.931C263.662 122.047 263.119 122.105 262.46 122.105C260.249 122.261 258.426 123.463 256.991 125.713C256.138 127.07 255.42 128.874 254.838 131.124C254.256 133.373 253.345 137.756 252.104 144.273C252.104 144.389 251.522 147.57 250.358 153.815C249.621 157.655 249.214 159.788 249.136 160.215C248.904 161.378 248.787 162.27 248.787 162.891C248.787 163.318 248.845 163.628 248.962 163.822C249.117 164.016 249.33 164.113 249.602 164.113C250.261 164.113 250.843 163.725 251.347 162.949C251.89 162.173 252.492 161.048 253.151 159.575C253.19 159.536 253.248 159.439 253.325 159.284C253.403 159.09 253.481 158.954 253.558 158.876C253.675 158.799 253.791 158.76 253.907 158.76C254.218 158.76 254.373 159.109 254.373 159.807C254.373 161.126 253.965 162.561 253.151 164.113C252.336 165.625 251.289 166.925 250.009 168.011C248.729 169.058 247.468 169.582 246.227 169.582C245.219 169.582 244.424 169.213 243.842 168.476C243.299 167.739 243.027 166.75 243.027 165.509C243.027 165.199 243.066 164.733 243.144 164.113L243.435 162.135H243.318C241.883 164.307 240.235 166.091 238.373 167.487C236.55 168.884 234.959 169.582 233.602 169.582ZM236.918 163.822C237.772 163.822 238.858 163.065 240.176 161.553C241.534 160.04 242.795 158.139 243.958 155.851C245.122 153.524 245.898 151.216 246.285 148.927L246.693 146.658C245.723 146.076 244.831 145.785 244.016 145.785C242.775 145.785 241.515 146.561 240.235 148.113C238.993 149.625 237.965 151.604 237.151 154.047C236.375 156.452 235.987 158.915 235.987 161.436C235.987 162.367 236.045 163.007 236.162 163.356C236.317 163.667 236.569 163.822 236.918 163.822Z" fill="white"/>
</svg>
