<svg width="300" height="300" viewBox="0 0 300 300" fill="none" xmlns="http://www.w3.org/2000/svg">
<circle cx="150" cy="150" r="150" fill="black"/>
<path d="M37.996 116.232C37.3827 143.955 37.0453 165.605 36.984 181.184C36.064 182.165 35.236 182.656 34.5 182.656C33.8253 182.656 33.2427 182.503 32.752 182.196C31.3413 181.276 30.636 179.559 30.636 177.044C30.7587 147.543 30.9733 130.277 31.28 125.248C31.5867 120.219 32.0467 117.305 32.66 116.508C33.2733 115.711 34.0093 115.312 34.868 115.312C35.7267 115.312 36.7693 115.619 37.996 116.232ZM87.9822 178.424C86.8782 179.589 85.6209 180.172 84.2102 180.172C81.5729 180.172 79.6102 178.761 78.3222 175.94C77.0342 173.119 76.2675 169.684 76.0222 165.636C75.8382 161.588 75.7155 157.54 75.6542 153.492C75.5929 149.444 75.2555 146.009 74.6422 143.188C74.0902 140.367 73.0169 138.956 71.4222 138.956C69.2755 138.956 67.4355 140.888 65.9022 144.752C64.4302 148.616 63.3875 152.909 62.7742 157.632C61.0569 170.819 59.4009 178.209 57.8062 179.804C56.7022 180.356 55.7515 180.632 54.9542 180.632C54.1569 180.632 53.4822 180.54 52.9302 180.356C51.6422 174.713 50.8142 164.992 50.4462 151.192C50.3235 144.323 50.2009 139.876 50.0782 137.852C51.3662 136.993 52.4702 136.564 53.3902 136.564C54.3102 136.564 55.0462 136.656 55.5982 136.84C55.9049 139.477 56.0582 144.875 56.0582 153.032C56.1195 161.189 56.1809 165.881 56.2422 167.108C56.5489 165.82 56.9169 163.735 57.3462 160.852C57.8369 157.969 58.2662 155.608 58.6342 153.768C59.0022 151.867 59.5849 149.659 60.3822 147.144C61.1795 144.629 62.0689 142.636 63.0502 141.164C64.0315 139.631 65.3809 138.343 67.0982 137.3C68.8155 136.196 70.7475 135.644 72.8942 135.644C75.7769 135.644 77.8622 136.963 79.1502 139.6C80.4995 142.176 81.2355 145.396 81.3582 149.26C81.4809 153.124 81.5422 157.049 81.5422 161.036C81.6035 165.023 82.0942 168.672 83.0142 171.984C83.9955 175.296 85.6515 177.443 87.9822 178.424ZM100.824 181.644C99.7201 181.644 99.1681 172.352 99.1681 153.768C99.1681 145.917 99.1374 141.164 99.0761 139.508H97.2361C96.3774 139.508 95.7028 139.508 95.2121 139.508C94.7214 139.447 94.0774 139.416 93.2801 139.416C92.5441 139.355 91.9308 139.263 91.4401 139.14C91.0108 139.017 90.5508 138.864 90.0601 138.68C89.1401 138.312 88.6801 137.668 88.6801 136.748C88.6801 135.583 90.5814 135 94.3841 135C96.0401 135 97.5428 135.061 98.8921 135.184C98.9534 133.957 98.9841 132.393 98.9841 130.492C99.0454 128.529 99.1068 127.027 99.1681 125.984C99.2294 124.88 99.2908 123.561 99.3521 122.028C99.4748 120.495 99.6281 119.299 99.8121 118.44C100.057 117.581 100.364 116.631 100.732 115.588C101.1 114.484 101.591 113.656 102.204 113.104C102.817 112.552 103.523 112 104.32 111.448C105.731 110.405 108.061 109.884 111.312 109.884C114.624 109.884 117.047 110.712 118.58 112.368C120.175 113.963 121.585 116.692 122.812 120.556C121.892 121.66 120.819 122.212 119.592 122.212C119.163 122.212 118.733 122.151 118.304 122.028C117.2 119.084 116.188 117.091 115.268 116.048C114.409 115.005 113.213 114.484 111.68 114.484C110.147 114.484 108.981 114.76 108.184 115.312C107.448 115.864 106.865 116.569 106.436 117.428C105.516 119.268 105.056 123.715 105.056 130.768C105.056 131.075 105.056 131.627 105.056 132.424C105.056 133.221 105.056 133.957 105.056 134.632L112.876 133.896C115.943 133.896 117.476 134.601 117.476 136.012C117.476 136.932 116.74 137.545 115.268 137.852C113.796 138.159 111.925 138.343 109.656 138.404C107.448 138.465 105.915 138.649 105.056 138.956C104.933 140.673 104.872 142.943 104.872 145.764C104.872 148.524 105.025 152.94 105.332 159.012C105.639 165.023 105.792 169.623 105.792 172.812C105.792 176.001 105.455 178.271 104.78 179.62C104.167 180.969 102.848 181.644 100.824 181.644ZM130.464 113.288C130.403 114.699 130.372 116.263 130.372 117.98C130.372 119.697 130.464 121.476 130.648 123.316C129.789 124.297 128.624 124.788 127.152 124.788C125.312 124.788 124.392 123.316 124.392 120.372C124.392 120.249 124.392 119.789 124.392 118.992C124.392 118.195 124.392 117.489 124.392 116.876C124.453 116.201 124.576 115.435 124.76 114.576C125.189 113.104 126.14 112.368 127.612 112.368C129.084 112.368 130.035 112.675 130.464 113.288ZM124.576 158.368C124.576 146.347 125.189 139.416 126.416 137.576C126.845 136.901 127.367 136.564 127.98 136.564C128.593 136.564 129.605 136.901 131.016 137.576C130.709 142.789 130.556 148.463 130.556 154.596C130.556 154.596 130.617 161.373 130.74 174.928C130.74 176.829 130.311 178.179 129.452 178.976C128.655 179.712 127.888 180.08 127.152 180.08C126.477 180.08 125.772 179.896 125.036 179.528C124.729 171.555 124.576 164.501 124.576 158.368ZM180.162 178.424C179.058 179.589 177.801 180.172 176.39 180.172C173.753 180.172 171.79 178.761 170.502 175.94C169.214 173.119 168.447 169.684 168.202 165.636C168.018 161.588 167.895 157.54 167.834 153.492C167.773 149.444 167.435 146.009 166.822 143.188C166.27 140.367 165.197 138.956 163.602 138.956C161.455 138.956 159.615 140.888 158.082 144.752C156.61 148.616 155.567 152.909 154.954 157.632C153.237 170.819 151.581 178.209 149.986 179.804C148.882 180.356 147.931 180.632 147.134 180.632C146.337 180.632 145.662 180.54 145.11 180.356C143.822 174.713 142.994 164.992 142.626 151.192C142.503 144.323 142.381 139.876 142.258 137.852C143.546 136.993 144.65 136.564 145.57 136.564C146.49 136.564 147.226 136.656 147.778 136.84C148.085 139.477 148.238 144.875 148.238 153.032C148.299 161.189 148.361 165.881 148.422 167.108C148.729 165.82 149.097 163.735 149.526 160.852C150.017 157.969 150.446 155.608 150.814 153.768C151.182 151.867 151.765 149.659 152.562 147.144C153.359 144.629 154.249 142.636 155.23 141.164C156.211 139.631 157.561 138.343 159.278 137.3C160.995 136.196 162.927 135.644 165.074 135.644C167.957 135.644 170.042 136.963 171.33 139.6C172.679 142.176 173.415 145.396 173.538 149.26C173.661 153.124 173.722 157.049 173.722 161.036C173.783 165.023 174.274 168.672 175.194 171.984C176.175 175.296 177.831 177.443 180.162 178.424ZM192.636 113.288C192.574 114.699 192.544 116.263 192.544 117.98C192.544 119.697 192.636 121.476 192.82 123.316C191.961 124.297 190.796 124.788 189.324 124.788C187.484 124.788 186.564 123.316 186.564 120.372C186.564 120.249 186.564 119.789 186.564 118.992C186.564 118.195 186.564 117.489 186.564 116.876C186.625 116.201 186.748 115.435 186.932 114.576C187.361 113.104 188.312 112.368 189.784 112.368C191.256 112.368 192.206 112.675 192.636 113.288ZM186.748 158.368C186.748 146.347 187.361 139.416 188.588 137.576C189.017 136.901 189.538 136.564 190.152 136.564C190.765 136.564 191.777 136.901 193.188 137.576C192.881 142.789 192.728 148.463 192.728 154.596C192.728 154.596 192.789 161.373 192.912 174.928C192.912 176.829 192.482 178.179 191.624 178.976C190.826 179.712 190.06 180.08 189.324 180.08C188.649 180.08 187.944 179.896 187.208 179.528C186.901 171.555 186.748 164.501 186.748 158.368ZM204.614 142.452C201.854 142.452 199.983 141.777 199.002 140.428C199.002 139.447 199.4 138.68 200.198 138.128C201.056 137.576 201.976 137.239 202.958 137.116C203.939 136.932 205.534 136.779 207.742 136.656C207.926 135 208.018 132.884 208.018 130.308C208.079 127.671 208.14 125.432 208.202 123.592C208.386 118.747 209.122 115.772 210.41 114.668C210.962 114.177 211.544 113.932 212.158 113.932C212.832 113.932 213.415 113.993 213.906 114.116C214.09 118.532 214.182 121.2 214.182 122.12L213.63 135.92C213.752 135.981 214.09 136.012 214.642 136.012L221.266 135.736C226.05 135.736 228.442 136.472 228.442 137.944C228.442 140.029 227.583 141.256 225.866 141.624C225.068 141.808 224.118 141.9 223.014 141.9C221.971 141.9 220.591 141.777 218.874 141.532C217.218 141.225 216.022 141.072 215.286 141.072C214.55 141.072 214.059 141.103 213.814 141.164C213.63 142.943 213.538 144.721 213.538 146.5C213.538 148.217 213.568 150.395 213.63 153.032C213.752 155.608 213.998 158.705 214.366 162.324C214.795 165.943 215.684 169.071 217.034 171.708C218.383 174.284 220.1 175.572 222.186 175.572C223.228 175.572 224.455 175.173 225.866 174.376C227.276 173.517 228.35 173.088 229.086 173.088C229.883 173.088 230.558 173.272 231.11 173.64C231.723 173.947 232.03 174.315 232.03 174.744C232.03 176.032 230.711 177.289 228.074 178.516C225.498 179.681 223.29 180.264 221.45 180.264C214.703 180.264 210.502 173.885 208.846 161.128C208.355 157.448 207.987 151.131 207.742 142.176C206.76 142.36 205.718 142.452 204.614 142.452ZM242.186 162.324C242.064 163.551 242.002 164.379 242.002 164.808C242.002 168.488 243.106 171.34 245.314 173.364C247.584 175.388 250.252 176.4 253.318 176.4C256.385 176.4 258.869 175.971 260.77 175.112C262.733 174.253 264.144 173.333 265.002 172.352C267.21 169.592 269.234 168.212 271.074 168.212C271.749 168.212 272.546 168.396 273.466 168.764C272.853 171.769 270.522 174.529 266.474 177.044C262.488 179.497 257.458 180.724 251.386 180.724C247.093 180.724 243.382 179.375 240.254 176.676C237.188 173.916 235.654 170.175 235.654 165.452C235.654 160.729 236.574 156.16 238.414 151.744C240.316 147.267 243.014 143.464 246.51 140.336C250.068 137.147 253.656 135.552 257.274 135.552C260.954 135.552 263.898 136.319 266.106 137.852C268.376 139.324 269.51 141.501 269.51 144.384C269.51 149.72 267.118 154.136 262.334 157.632C257.612 161.067 252.582 162.784 247.246 162.784C245.836 162.784 244.149 162.631 242.186 162.324ZM249.178 159.288C252.061 159.288 254.637 158.368 256.906 156.528C259.176 154.688 260.77 152.756 261.69 150.732C262.672 148.708 263.162 146.868 263.162 145.212C263.162 143.556 262.518 142.115 261.23 140.888C259.942 139.6 258.44 138.956 256.722 138.956C253.656 138.956 250.804 141.072 248.166 145.304C245.59 149.536 243.75 153.921 242.646 158.46C245.345 159.012 247.522 159.288 249.178 159.288Z" fill="white"/>
<path d="M90.8594 222H87.8594V199.25H90.8594V222ZM113.844 222H110.828L99.375 204.469V222H96.3594V199.25H99.375L110.859 216.859V199.25H113.844V222ZM125.875 211.859C123.302 211.12 121.427 210.214 120.25 209.141C119.083 208.057 118.5 206.724 118.5 205.141C118.5 203.349 119.214 201.87 120.641 200.703C122.078 199.526 123.943 198.938 126.234 198.938C127.797 198.938 129.188 199.24 130.406 199.844C131.635 200.448 132.583 201.281 133.25 202.344C133.927 203.406 134.266 204.568 134.266 205.828H131.25C131.25 204.453 130.812 203.375 129.938 202.594C129.062 201.802 127.828 201.406 126.234 201.406C124.755 201.406 123.599 201.734 122.766 202.391C121.943 203.036 121.531 203.938 121.531 205.094C121.531 206.021 121.922 206.807 122.703 207.453C123.495 208.089 124.833 208.672 126.719 209.203C128.615 209.734 130.094 210.323 131.156 210.969C132.229 211.604 133.021 212.349 133.531 213.203C134.052 214.057 134.312 215.062 134.312 216.219C134.312 218.062 133.594 219.542 132.156 220.656C130.719 221.76 128.797 222.312 126.391 222.312C124.828 222.312 123.37 222.016 122.016 221.422C120.661 220.818 119.615 219.995 118.875 218.953C118.146 217.911 117.781 216.729 117.781 215.406H120.797C120.797 216.781 121.302 217.87 122.312 218.672C123.333 219.464 124.693 219.859 126.391 219.859C127.974 219.859 129.188 219.536 130.031 218.891C130.875 218.245 131.297 217.365 131.297 216.25C131.297 215.135 130.906 214.276 130.125 213.672C129.344 213.057 127.927 212.453 125.875 211.859ZM141.391 222H138.391V199.25H141.391V222ZM163.688 219.016C162.917 220.12 161.839 220.948 160.453 221.5C159.078 222.042 157.474 222.312 155.641 222.312C153.786 222.312 152.141 221.88 150.703 221.016C149.266 220.141 148.151 218.901 147.359 217.297C146.578 215.693 146.177 213.833 146.156 211.719V209.734C146.156 206.307 146.953 203.651 148.547 201.766C150.151 199.88 152.401 198.938 155.297 198.938C157.672 198.938 159.583 199.547 161.031 200.766C162.479 201.974 163.365 203.693 163.688 205.922H160.688C160.125 202.911 158.333 201.406 155.312 201.406C153.302 201.406 151.776 202.115 150.734 203.531C149.703 204.938 149.182 206.979 149.172 209.656V211.516C149.172 214.068 149.755 216.099 150.922 217.609C152.089 219.109 153.667 219.859 155.656 219.859C156.781 219.859 157.766 219.734 158.609 219.484C159.453 219.234 160.151 218.812 160.703 218.219V213.109H155.438V210.672H163.688V219.016ZM186.188 222H183.172V211.484H171.703V222H168.703V199.25H171.703V209.031H183.172V199.25H186.188V222ZM206.766 201.719H199.453V222H196.469V201.719H189.172V199.25H206.766V201.719ZM216.594 211.859C214.021 211.12 212.146 210.214 210.969 209.141C209.802 208.057 209.219 206.724 209.219 205.141C209.219 203.349 209.932 201.87 211.359 200.703C212.797 199.526 214.661 198.938 216.953 198.938C218.516 198.938 219.906 199.24 221.125 199.844C222.354 200.448 223.302 201.281 223.969 202.344C224.646 203.406 224.984 204.568 224.984 205.828H221.969C221.969 204.453 221.531 203.375 220.656 202.594C219.781 201.802 218.547 201.406 216.953 201.406C215.474 201.406 214.318 201.734 213.484 202.391C212.661 203.036 212.25 203.938 212.25 205.094C212.25 206.021 212.641 206.807 213.422 207.453C214.214 208.089 215.552 208.672 217.438 209.203C219.333 209.734 220.812 210.323 221.875 210.969C222.948 211.604 223.74 212.349 224.25 213.203C224.771 214.057 225.031 215.062 225.031 216.219C225.031 218.062 224.312 219.542 222.875 220.656C221.438 221.76 219.516 222.312 217.109 222.312C215.547 222.312 214.089 222.016 212.734 221.422C211.38 220.818 210.333 219.995 209.594 218.953C208.865 217.911 208.5 216.729 208.5 215.406H211.516C211.516 216.781 212.021 217.87 213.031 218.672C214.052 219.464 215.411 219.859 217.109 219.859C218.693 219.859 219.906 219.536 220.75 218.891C221.594 218.245 222.016 217.365 222.016 216.25C222.016 215.135 221.625 214.276 220.844 213.672C220.062 213.057 218.646 212.453 216.594 211.859Z" fill="white"/>
</svg>
