<?xml version="1.0" encoding="UTF-8" standalone="no"?>
<svg
   xmlns:dc="http://purl.org/dc/elements/1.1/"
   xmlns:cc="http://creativecommons.org/ns#"
   xmlns:rdf="http://www.w3.org/1999/02/22-rdf-syntax-ns#"
   xmlns:svg="http://www.w3.org/2000/svg"
   xmlns="http://www.w3.org/2000/svg"
   xmlns:sodipodi="http://sodipodi.sourceforge.net/DTD/sodipodi-0.dtd"
   xmlns:inkscape="http://www.inkscape.org/namespaces/inkscape"
   version="1.1"
   id="svg2"
   xml:space="preserve"
   width="377.77332"
   height="377.77332"
   viewBox="0 0 377.77332 377.77332"
   sodipodi:docname="NCR_BB_361_2017.eps"><metadata
     id="metadata8"><rdf:RDF><cc:Work
         rdf:about=""><dc:format>image/svg+xml</dc:format><dc:type
           rdf:resource="http://purl.org/dc/dcmitype/StillImage" /></cc:Work></rdf:RDF></metadata><defs
     id="defs6" /><sodipodi:namedview
     pagecolor="#ffffff"
     bordercolor="#666666"
     borderopacity="1"
     objecttolerance="10"
     gridtolerance="10"
     guidetolerance="10"
     inkscape:pageopacity="0"
     inkscape:pageshadow="2"
     inkscape:window-width="640"
     inkscape:window-height="480"
     id="namedview4" /><g
     id="g10"
     inkscape:groupmode="layer"
     inkscape:label="ink_ext_XXXXXX"
     transform="matrix(1.3333333,0,0,-1.3333333,0,377.77333)"><g
       id="g12"
       transform="scale(0.1)"><path
         d="M 2833.34,0 H 0 V 2833.34 H 2833.34 V 0"
         style="fill:#4fbe37;fill-opacity:1;fill-rule:nonzero;stroke:none"
         id="path14" /><path
         d="m 1663.73,1376.26 c 0,0 -4.55,16.7 -4.55,29.06 v 193.4 h 77.49 v -372.54 l -248.01,205.35 c -13.27,11.3 -21.09,23.9 -21.09,23.9 0,0 3.9,-13.88 3.9,-25.91 l -0.08,-194.93 h -77.47 v 371.09 l 245.72,-201.26 c 13.15,-11.16 24.09,-28.16 24.09,-28.16 v 0"
         style="fill:#ffffff;fill-opacity:1;fill-rule:nonzero;stroke:none"
         id="path16" /><path
         d="m 2365.18,1598.72 c 122.7,0 154.16,-48.41 154.16,-117.99 0,-50.46 -37.13,-99.81 -112.01,-105.69 l -8.19,-0.37 c 0,0 7.22,-1.3 14.79,-8.6 l 135.93,-131.48 h -105.05 l -189.72,192.66 h 94.5 c 84.6,0 87.03,44.59 87.66,55.88 1.58,28.87 -7.68,52.04 -72.24,52.04 h -108 v -300.58 h -80.55 v 364.13 h 188.72 v 0"
         style="fill:#ffffff;fill-opacity:1;fill-rule:nonzero;stroke:none"
         id="path18" /><path
         d="m 1771.5,1411.45 c 0,152.56 127.71,192.6 235.02,192.6 42.97,0 81.05,-3.83 121.04,-12.31 l 0.14,-77.34 c -23.04,7.04 -69.31,22.57 -121.18,22.57 -101.72,0 -151.13,-39.52 -151.13,-125.52 0,-70.44 53.22,-115.33 151.13,-115.33 51.87,0 103.88,12.35 129.01,21.65 l -0.13,-75.05 c -40,-8.46 -85.91,-13.68 -128.88,-13.68 -114.63,0 -235.02,55.72 -235.02,182.41 v 0"
         style="fill:#ffffff;fill-opacity:1;fill-rule:nonzero;stroke:none"
         id="path20" /><path
         d="m 899.781,1589.35 75.555,-71.16 c -2.031,-0.91 -4.402,-2.05 -7.215,-3.46 -4.336,-2.25 -9.57,-5.31 -15.832,-9.62 -12.43,-8.61 -28.699,-22.24 -49.461,-44.69 L 755.211,1304.2 c -25.332,-26.74 -51.055,-47.93 -74.973,-59.12 l -75.554,71.16 c 2.05,0.94 4.453,2.04 7.187,3.51 4.363,2.19 9.59,5.28 15.82,9.6 12.43,8.59 28.719,22.2 49.454,44.63 l 147.617,156.01 c 25.34,26.71 51.101,48.16 75.019,59.36 v 0"
         style="fill:#ffffff;fill-opacity:1;fill-rule:nonzero;stroke:none"
         id="path22" /><path
         d="m 607.34,1211.62 c 33.418,0 64.09,6.64 84.922,17.43 9.511,4.97 23.086,13.55 34.804,22.61 11.649,9.1 28.106,23.23 42.09,38.08 l 147.813,155.79 c 37.254,39.27 59.668,51.38 73.242,56.15 l 75.819,-71.79 c -15.82,-16.93 -204.491,-217.88 -204.491,-217.88 -12.902,-13.88 -26.437,-27.27 -35.637,-35.73 -8.828,-8.18 -23.992,-20.3 -31.816,-26.04 -44.363,-32.53 -103.652,-58.89 -183.477,-58.89 -180.828,0 -327.129,147.22 -327.129,316.72 0,210.3 164.297,332.3 313.965,332.3 45.84,1.35 82.668,-6.34 111.731,-16.23 26.914,-9.16 47.226,-20.21 61.941,-27.73 -17.39,-11.17 -34.238,-26.36 -62.051,-56.06 l -30.293,-32.55 c -6.992,2.67 -37.949,13.44 -77.734,12.26 -95.976,-2.84 -200.996,-80.7 -197.215,-208.34 3.524,-119.39 101.942,-200.1 203.516,-200.1 v 0"
         style="fill:#ffffff;fill-opacity:1;fill-rule:nonzero;stroke:none"
         id="path24" /><path
         d="m 886.813,1604.27 c -9.551,-4.95 -23.137,-13.51 -34.844,-22.61 -11.653,-9.06 -28.106,-23.21 -42.102,-38.04 L 662.094,1387.81 c -37.274,-39.26 -59.688,-51.36 -73.262,-56.14 l -75.828,71.77 c 15.848,16.94 204.5,217.88 204.5,217.88 12.902,13.87 26.437,27.24 35.637,35.76 8.836,8.16 24.004,20.28 31.836,26.03 44.324,32.51 103.691,58.88 183.503,58.88 180.86,0 327.08,-147.19 327.08,-316.68 0,-210.33 -164.28,-332.3 -313.962,-332.3 -45.84,-1.38 -82.668,6.34 -111.739,16.24 -26.953,9.16 -47.324,20.25 -62.043,27.77 18.399,12.39 34.153,26.04 62.161,55.94 l 30.3,32.58 c 6.985,-2.64 37.95,-13.44 77.707,-12.28 95.996,2.85 201.036,80.74 197.246,208.4 -3.55,119.35 -102.01,200.06 -203.566,200.06 -33.437,0 -64.031,-6.62 -84.851,-17.45 v 0"
         style="fill:#ffffff;fill-opacity:1;fill-rule:nonzero;stroke:none"
         id="path26" /></g></g></svg>
