<svg width="512" height="512" viewBox="0 0 512 512" fill="none" xmlns="http://www.w3.org/2000/svg">
<rect width="512" height="512" rx="22.6222" fill="#2C2C2C"/>
<path d="M267.167 145.714C319.622 145.714 345.85 165.706 345.85 205.691C345.85 223.308 339.614 237.758 327.144 249.041C314.871 260.324 300.223 265.965 283.2 265.965C266.177 265.965 251.727 263.194 239.85 257.651V286.452C239.85 307.632 240.444 322.082 241.632 329.802C243.018 337.522 244.898 342.372 247.273 344.351C251.826 348.112 259.051 349.992 268.948 349.992L269.542 353.555H189.375L189.968 349.992C199.866 349.992 207.091 348.112 211.643 344.351C216.592 340.194 219.066 320.895 219.066 286.452V212.817C219.066 191.637 218.373 177.187 216.988 169.467C215.8 161.747 214.019 156.898 211.643 154.918C207.091 151.157 199.866 149.277 189.968 149.277L189.375 145.714H267.167ZM239.85 152.543V250.228C250.144 255.771 262.218 258.542 276.074 258.542C290.128 258.542 301.411 254.187 309.923 245.478C318.434 236.57 322.69 223.308 322.69 205.691C322.69 183.719 315.564 169.071 301.312 161.747C289.633 155.611 275.579 152.543 259.15 152.543H239.85Z" fill="#F8F8F8"/>
</svg>
