<svg width="512" height="512" viewBox="0 0 512 512" fill="none" xmlns="http://www.w3.org/2000/svg">
<circle cx="256" cy="256" r="252" fill="white" stroke="#172222" stroke-width="8"/>
<path d="M221.769 357.488C230.156 357.098 235.52 354.758 237.861 350.467C240.396 346.176 241.664 339.544 241.664 330.572V321.502L241.957 173.168L211.822 173.461C199.729 173.461 191.049 177.557 185.783 185.749C180.712 193.746 178.176 206.521 178.176 224.076H167.351L169.106 162.343H339.675L341.431 224.076H330.313C330.118 211.788 328.85 202.035 326.51 194.819C324.364 187.407 320.561 181.945 315.099 178.435C309.833 174.729 302.226 172.876 292.279 172.876H267.41L267.118 332.327C267.118 342.665 266.825 350.369 266.24 355.44L290.523 354.27V367.143H221.769V357.488Z" fill="black"/>
</svg>
