<svg width="300" height="300" viewBox="0 0 300 300" fill="none" xmlns="http://www.w3.org/2000/svg">
<circle cx="150" cy="150" r="150" fill="#B38E59"/>
<path d="M92.9673 135.451H79.2364V171H72.6618V135.451H58.8727V129.691H92.9673V135.451ZM110.934 146.098C108.452 146.176 106.241 146.758 104.301 147.844C102.401 148.891 101.043 150.404 100.229 152.382V171H93.8286V140.571H99.7632V147.378C100.81 145.284 102.187 143.616 103.894 142.375C105.601 141.095 107.404 140.396 109.305 140.28C109.654 140.28 109.964 140.28 110.236 140.28C110.507 140.28 110.74 140.299 110.934 140.338V146.098ZM113.322 162.098C113.322 160.159 113.865 158.472 114.951 157.036C116.037 155.562 117.55 154.438 119.49 153.662C121.468 152.847 123.737 152.44 126.297 152.44C127.654 152.44 129.031 152.556 130.428 152.789C131.863 152.983 133.123 153.274 134.21 153.662V151.742C134.21 149.608 133.57 147.941 132.29 146.738C131.01 145.536 129.167 144.935 126.762 144.935C125.094 144.935 123.485 145.225 121.933 145.807C120.382 146.389 118.772 147.242 117.104 148.367L114.951 144.062C116.968 142.743 118.985 141.754 121.002 141.095C123.058 140.396 125.211 140.047 127.46 140.047C131.533 140.047 134.733 141.133 137.06 143.305C139.427 145.439 140.61 148.484 140.61 152.44V163.785C140.61 164.522 140.726 165.046 140.959 165.356C141.23 165.667 141.676 165.841 142.297 165.88V171C141.715 171.116 141.191 171.194 140.726 171.233C140.26 171.272 139.873 171.291 139.562 171.291C138.166 171.291 137.119 170.961 136.42 170.302C135.761 169.604 135.373 168.828 135.257 167.975L135.082 166.229C133.763 167.936 132.076 169.255 130.02 170.185C127.965 171.116 125.89 171.582 123.795 171.582C121.778 171.582 119.974 171.175 118.384 170.36C116.794 169.507 115.553 168.362 114.66 166.927C113.768 165.492 113.322 163.882 113.322 162.098ZM132.697 163.96C133.705 162.952 134.21 162.001 134.21 161.109V157.618C131.921 156.765 129.594 156.338 127.228 156.338C124.9 156.338 123 156.823 121.526 157.793C120.091 158.724 119.373 159.984 119.373 161.575C119.373 162.893 119.897 164.115 120.944 165.24C122.03 166.326 123.582 166.869 125.599 166.869C126.956 166.869 128.275 166.598 129.555 166.055C130.835 165.512 131.882 164.813 132.697 163.96ZM155.846 171L144.268 140.571H150.9L159.57 165.065L168.239 140.571H174.406L162.828 171H155.846ZM179.057 128.527H185.457V162.215C185.457 163.766 185.69 164.755 186.155 165.182C186.621 165.608 187.203 165.822 187.901 165.822C188.677 165.822 189.414 165.744 190.112 165.589C190.81 165.434 191.392 165.24 191.857 165.007L192.788 170.069C191.857 170.457 190.752 170.787 189.472 171.058C188.192 171.33 187.048 171.465 186.039 171.465C183.867 171.465 182.16 170.864 180.919 169.662C179.678 168.421 179.057 166.714 179.057 164.542V128.527ZM196.499 135.567V128.527H202.899V135.567H196.499ZM196.499 171V140.571H202.899V171H196.499ZM224.263 171.582C221.082 171.582 218.309 170.864 215.943 169.429C213.615 167.955 211.812 166.035 210.532 163.669C209.252 161.264 208.612 158.646 208.612 155.815C208.612 152.983 209.252 150.384 210.532 148.018C211.851 145.613 213.674 143.693 216.001 142.258C218.367 140.784 221.121 140.047 224.263 140.047C227.405 140.047 230.139 140.784 232.466 142.258C234.832 143.693 236.655 145.613 237.935 148.018C239.254 150.384 239.914 152.983 239.914 155.815C239.914 158.646 239.274 161.264 237.994 163.669C236.714 166.035 234.891 167.955 232.525 169.429C230.197 170.864 227.443 171.582 224.263 171.582ZM215.186 155.873C215.186 157.812 215.594 159.558 216.408 161.109C217.223 162.661 218.309 163.882 219.666 164.775C221.024 165.667 222.556 166.113 224.263 166.113C225.931 166.113 227.443 165.667 228.801 164.775C230.197 163.844 231.303 162.602 232.117 161.051C232.932 159.499 233.339 157.754 233.339 155.815C233.339 153.875 232.932 152.13 232.117 150.578C231.303 149.027 230.197 147.805 228.801 146.913C227.443 145.982 225.931 145.516 224.263 145.516C222.595 145.516 221.063 145.982 219.666 146.913C218.309 147.805 217.223 149.046 216.408 150.636C215.594 152.188 215.186 153.933 215.186 155.873Z" fill="black"/>
</svg>
